<svg aria-hidden="true" xmlns="http://www.w3.org/2000/svg">
    <defs>
        <!-- close -->
        <symbol id="icon-close" viewBox="0 0 11 11">
            <path
                d="M11 1.108 9.892 0 5.5 4.392 1.108 0 0 1.108 4.392 5.5 0 9.892 1.108 11 5.5 6.608 9.892 11 11 9.892 6.608 5.5 11 1.108Z" />
        </symbol>

        <!-- send -->
        <symbol id="icon-send" viewBox="0 0 24 24">
            <path d="M24 0 0 13.5l7.67 2.84L19.5 5.25l-8.998 12.14.007.002-.009-.002V24l4.301-5.018L20.251 21 24 0Z"/>
        </symbol>

        <!-- man -->
        <symbol id="icon-user" viewBox="0 0 12 12">
            <path
                d="M6 6a3 3 0 1 0 0-6 3 3 0 1 0 0 6Zm0 1.5c-2.002 0-6 1.005-6 3v.75c0 .412.338.75.75.75h10.5c.412 0 .75-.338.75-.75v-.75c0-1.995-3.998-3-6-3Z" />
        </symbol>

        <!-- phone -->
        <symbol id="icon-phone" viewBox="0 0 14 14">
            <path
                d="m11.996 9.123-1.838-.21a1.44 1.44 0 0 0-1.187.412l-1.332 1.332a10.888 10.888 0 0 1-4.769-4.77L4.21 4.55a1.44 1.44 0 0 0 .412-1.187l-.21-1.824a1.448 1.448 0 0 0-1.44-1.28H1.72C.902.257.222.937.272 1.754c.384 6.18 5.327 11.116 11.5 11.5.817.05 1.498-.63 1.498-1.448v-1.252a1.434 1.434 0 0 0-1.274-1.432Z" />
        </symbol>

        <!-- letter -->
        <symbol id="icon-letter" viewBox="0 0 16 12">
            <path
                d="M14 0H2C1.175 0 .507.675.507 1.5l-.007 9c0 .825.675 1.5 1.5 1.5h12c.825 0 1.5-.675 1.5-1.5v-9C15.5.675 14.825 0 14 0Zm-.3 3.188L8.398 6.502a.759.759 0 0 1-.795 0L2.3 3.187a.637.637 0 1 1 .675-1.08L8 5.25l5.025-3.143a.637.637 0 1 1 .675 1.08Z" />
        </symbol>

        <!-- check-box-empty -->
        <symbol id="icon-cb-empty" viewBox="0 0 16 15">
            <path
                d="M14.222 1.667v11.666H1.778V1.667h12.444Zm0-1.667H1.778C.8 0 0 .75 0 1.667v11.666C0 14.25.8 15 1.778 15h12.444C15.2 15 16 14.25 16 13.333V1.667C16 .75 15.2 0 14.222 0Z" />
        </symbol>

        <!-- check-box-agree -->
        <symbol id="icon-cb-agree" viewBox="0 0 13 10">
            <path
                d="m1.957 4.752-.069-.066-.069.065-.888.842-.076.072.076.073 3.496 3.334.069.066.069-.066 7.504-7.158.076-.073-.076-.072-.882-.841-.069-.066-.069.066-6.553 6.246-2.539-2.422Z" />
        </symbol>
    </defs>
</svg>